<?xml version="1.0" standalone="no"?>
<!DOCTYPE svg PUBLIC "-//W3C//DTD SVG 20010904//EN"
 "http://www.w3.org/TR/2001/REC-SVG-20010904/DTD/svg10.dtd">
<svg version="1.0" xmlns="http://www.w3.org/2000/svg"
 width="512.000000pt" height="512.000000pt" viewBox="0 0 512.000000 512.000000"
 preserveAspectRatio="xMidYMid meet">

<g transform="translate(0.000000,512.000000) scale(0.100000,-0.100000)"
fill="#000000" stroke="none">
<path d="M2240 5094 c-19 -2 -84 -9 -145 -14 -463 -44 -926 -185 -1188 -362
-92 -62 -189 -163 -223 -233 l-29 -60 0 -1860 0 -1860 29 -58 c60 -124 201
-241 415 -348 667 -332 1856 -380 2674 -108 342 113 583 272 663 435 l29 59 0
1860 0 1860 -27 58 c-34 72 -134 178 -232 245 -255 177 -654 305 -1146 368
-109 15 -732 28 -820 18z m710 -274 c304 -29 578 -92 757 -176 289 -136 284
-320 -12 -459 -240 -113 -588 -173 -1043 -182 -467 -9 -814 33 -1107 134 -329
114 -432 262 -282 408 157 152 532 251 1097 289 92 6 467 -3 590 -14z m-1150
-1911 c36 -5 82 -14 103 -20 l37 -10 0 -135 0 -134 -40 20 c-166 85 -388 52
-314 -47 22 -28 35 -36 165 -97 174 -81 243 -168 244 -306 0 -167 -102 -273
-307 -316 -84 -18 -230 -13 -335 11 -109 25 -103 15 -103 176 0 77 3 139 8
137 4 -2 34 -17 67 -34 186 -98 357 -79 310 33 -13 31 -23 37 -187 111 -77 35
-151 99 -180 157 -29 56 -36 167 -14 233 23 68 92 144 163 179 100 48 245 64
383 42z m903 -4 c228 -48 371 -219 392 -468 8 -95 -15 -222 -55 -304 -37 -75
-116 -164 -178 -200 l-45 -27 44 -38 c24 -21 99 -84 166 -141 67 -56 122 -105
122 -109 1 -5 -86 -8 -193 -8 l-194 0 -112 120 c-94 100 -118 120 -148 126
-199 33 -353 156 -414 331 -31 90 -33 278 -4 363 33 97 77 169 142 229 127
119 298 164 477 126z m847 -395 l0 -390 178 -2 177 -3 3 -122 3 -123 -336 0
-335 0 0 515 0 515 155 0 155 0 0 -390z"/>
<path d="M2526 2640 c-76 -23 -126 -118 -128 -238 -2 -114 16 -176 66 -227 55
-58 113 -68 183 -34 82 41 113 108 113 246 0 190 -96 294 -234 253z"/>
</g>
</svg>
